name Walk4.mot
datacolumns 19
datarows 17
range 1.04500000 1.06100000
endheader

                time	   L_ground_force_vx	   L_ground_force_vy	   L_ground_force_vz	   L_ground_force_px	   L_ground_force_py	   L_ground_force_pz	   R_ground_force_vx	   R_ground_force_vy	   R_ground_force_vz	   R_ground_force_px	   R_ground_force_py	   R_ground_force_pz	   L_ground_torque_x	   L_ground_torque_y	   L_ground_torque_z	   R_ground_torque_x	   R_ground_torque_y	   R_ground_torque_z	
          1.04500000	          0.00000000	          0.00000000	          0.00000000	          0.00000000	          0.00000000	          0.00000000	          0.00000000	          0.00000000	          0.00000000	          0.00000000	          0.00000000	          0.00000000	          0.00000000	          0.00000000	          0.00000000	          0.00000000	          0.00000000	          0.00000000	
          1.04600000	          0.00000000	          0.00000000	          0.00000000	          0.00000000	          0.00000000	          0.00000000	          0.00000000	          0.00000000	          0.00000000	          0.00000000	          0.00000000	          0.00000000	          0.00000000	          0.00000000	          0.00000000	          0.00000000	          0.00000000	          0.00000000	
          1.04700000	          0.00000000	          0.00000000	          0.00000000	          0.00000000	          0.00000000	          0.00000000	          0.00000000	          0.00000000	          0.00000000	          0.00000000	          0.00000000	          0.00000000	          0.00000000	          0.00000000	          0.00000000	          0.00000000	          0.00000000	          0.00000000	
          1.04800000	          0.00000000	          0.00000000	          0.00000000	          0.00000000	          0.00000000	          0.00000000	          0.00000000	          0.00000000	          0.00000000	          0.00000000	          0.00000000	          0.00000000	          0.00000000	          0.00000000	          0.00000000	          0.00000000	          0.00000000	          0.00000000	
          1.04900000	          0.00000000	          0.00000000	          0.00000000	          0.00000000	          0.00000000	          0.00000000	          0.00000000	          0.00000000	          0.00000000	          0.00000000	          0.00000000	          0.00000000	          0.00000000	          0.00000000	          0.00000000	          0.00000000	          0.00000000	          0.00000000	
          1.05000000	          0.00000000	          0.00000000	          0.00000000	          0.00000000	          0.00000000	          0.00000000	          0.00000000	          0.00000000	          0.00000000	          0.00000000	          0.00000000	          0.00000000	          0.00000000	          0.00000000	          0.00000000	          0.00000000	          0.00000000	          0.00000000	
          1.05100000	         -5.04380905	         17.45300093	         -0.17714589	         -0.23305808	          0.00000000	          0.01828810	          0.00000000	          0.00000000	          0.00000000	          0.00000000	          0.00000000	          0.00000000	          0.00000000	          0.22503494	          0.00000000	          0.00000000	          0.00000000	          0.00000000	
          1.05200000	         -8.68319639	         40.87090713	         -0.39622257	         -0.23678581	          0.00000000	          0.01301111	          0.00000000	          0.00000000	          0.00000000	          0.00000000	          0.00000000	          0.00000000	          0.00000000	          0.28235076	          0.00000000	          0.00000000	          0.00000000	          0.00000000	
          1.05300000	        -13.54069236	         76.81153101	         -0.80421501	         -0.23825504	          0.00000000	          0.00981515	          0.00000000	          0.00000000	          0.00000000	          0.00000000	          0.00000000	          0.00000000	          0.00000000	          0.33786025	          0.00000000	          0.00000000	          0.00000000	          0.00000000	
          1.05400000	        -19.75884034	        126.89352567	         -1.54376478	         -0.23890331	          0.00000000	          0.00753177	          0.00000000	          0.00000000	          0.00000000	          0.00000000	          0.00000000	          0.00000000	          0.00000000	          0.41116313	          0.00000000	          0.00000000	          0.00000000	          0.00000000	
          1.05500000	        -27.04979250	        189.90184110	         -2.77264583	         -0.23920805	          0.00000000	          0.00602677	          0.00000000	          0.00000000	          0.00000000	          0.00000000	          0.00000000	          0.00000000	          0.00000000	          0.52384864	          0.00000000	          0.00000000	          0.00000000	          0.00000000	
          1.05600000	        -34.56564857	        260.63180124	         -4.65263132	         -0.23932476	          0.00000000	          0.00522506	          0.00000000	          0.00000000	          0.00000000	          0.00000000	          0.00000000	          0.00000000	          0.00000000	          0.67608493	          0.00000000	          0.00000000	          0.00000000	          0.00000000	
          1.05700000	        -41.22876316	        330.53602406	         -7.33827086	         -0.23926209	          0.00000000	          0.00496414	          0.00000000	          0.00000000	          0.00000000	          0.00000000	          0.00000000	          0.00000000	          0.00000000	          0.84959140	          0.00000000	          0.00000000	          0.00000000	          0.00000000	
          1.05800000	        -46.23441596	        390.41805507	        -10.88870039	         -0.23900464	          0.00000000	          0.00506343	          0.00000000	          0.00000000	          0.00000000	          0.00000000	          0.00000000	          0.00000000	          0.00000000	          1.02348294	          0.00000000	          0.00000000	          0.00000000	          0.00000000	
          1.05900000	        -49.30125805	        433.76198872	        -15.17181053	         -0.23858333	          0.00000000	          0.00539886	          0.00000000	          0.00000000	          0.00000000	          0.00000000	          0.00000000	          0.00000000	          0.00000000	          1.17579214	          0.00000000	          0.00000000	          0.00000000	          0.00000000	
          1.06000000	        -50.58808440	        458.67122316	        -19.88796784	         -0.23806580	          0.00000000	          0.00590283	          0.00000000	          0.00000000	          0.00000000	          0.00000000	          0.00000000	          0.00000000	          0.00000000	          1.28297061	          0.00000000	          0.00000000	          0.00000000	          0.00000000	
          1.06100000	        -50.49347186	        467.65423033	        -24.69412982	         -0.23751205	          0.00000000	          0.00651607	          0.00000000	          0.00000000	          0.00000000	          0.00000000	          0.00000000	          0.00000000	          0.00000000	          1.33053430	          0.00000000	          0.00000000	          0.00000000	          0.00000000	
